<?xml version="1.0" encoding="utf-8"?>
<!-- Generator: Adobe Illustrator 22.1.0, SVG Export Plug-In . SVG Version: 6.00 Build 0)  -->
<svg version="1.1" id="Layer_1" xmlns="http://www.w3.org/2000/svg" xmlns:xlink="http://www.w3.org/1999/xlink" x="0px" y="0px"
	 viewBox="0 0 25 30" style="enable-background:new 0 0 25 30;" xml:space="preserve">
<style type="text/css">
	.st0{clip-path:url(#SVGID_2_);}
</style>
<g>
	<defs>
		<rect id="SVGID_1_" x="0.6" y="0.5" width="23.9" height="29"/>
	</defs>
	<clipPath id="SVGID_2_">
		<use xlink:href="#SVGID_1_"  style="overflow:visible;"/>
	</clipPath>
	<path class="st0" d="M20.9,4c-2.3-2.3-5.3-3.5-8.4-3.5C5.9,0.5,0.6,5.9,0.6,12.4c0,6.5,11.1,16.5,11.6,16.9
		c0.1,0.1,0.2,0.1,0.3,0.1c0.1,0,0.3,0,0.3-0.1c0.5-0.4,11.6-10.5,11.6-16.9C24.4,9.3,23.2,6.3,20.9,4 M12.5,28.3
		C10.6,26.5,1.6,17.8,1.6,12.4c0-6,4.9-10.9,10.9-10.9s10.9,4.9,10.9,10.9C23.4,17.8,14.4,26.5,12.5,28.3"/>
	<path class="st0" d="M12.5,6.8c-2.8,0-5.1,2.3-5.1,5.1S9.7,17,12.5,17c2.8,0,5.1-2.3,5.1-5.1S15.3,6.8,12.5,6.8 M12.5,16
		c-2.2,0-4-1.8-4-4s1.8-4,4-4s4,1.8,4,4S14.7,16,12.5,16"/>
</g>
</svg>
