<?xml version="1.0" encoding="utf-8"?>
<!-- Generator: Adobe Illustrator 22.1.0, SVG Export Plug-In . SVG Version: 6.00 Build 0)  -->
<svg version="1.1" id="Layer_1" xmlns="http://www.w3.org/2000/svg" xmlns:xlink="http://www.w3.org/1999/xlink" x="0px" y="0px"
	 viewBox="0 0 25 25" style="enable-background:new 0 0 25 25;" xml:space="preserve">
<g>
	<g>
		<path d="M12.5,11.6c-2.6,0-4.6-2.5-4.6-5.6s2.1-5.6,4.6-5.6c2.6,0,4.6,2.5,4.6,5.6S15.1,11.6,12.5,11.6z M12.5,1.2
			c-2.2,0-3.9,2.2-3.9,4.9s1.8,4.9,3.9,4.9s3.9-2.2,3.9-4.9S14.7,1.2,12.5,1.2z"/>
	</g>
	<g>
		<path d="M12.3,24.5c-1.3,0-2.5-0.2-3.5-0.4c-3.2-0.6-5.1-1.9-5.2-2c-0.1-0.1-0.1-0.2-0.2-0.3c-0.2-3.6,0.5-6.3,2.1-8.1
			C7.3,12,9.5,12,9.6,12c0.1,0,0.2,0,0.2,0.1c2.9,2.3,5.2,0.1,5.3,0c0.1-0.1,0.2-0.1,0.2-0.1c1.8,0,3.3,0.6,4.3,1.8
			c2.5,2.8,1.8,8,1.8,8.2c0,0.1-0.1,0.2-0.2,0.3C18,24,14.9,24.5,12.3,24.5z M4.2,21.7c1.1,0.6,8.1,4.4,16.6,0
			c0.1-0.9,0.4-5.1-1.7-7.5c-0.9-1-2.1-1.5-3.6-1.6c-0.5,0.5-3,2.3-6,0c-0.4,0-2.1,0.3-3.4,1.7C4.6,15.9,4,18.4,4.2,21.7z"/>
	</g>
</g>
</svg>
