<svg width="116" height="20" viewBox="0 0 116 20" fill="none" xmlns="http://www.w3.org/2000/svg">
<path d="M82.0042 0.00227002C93.0405 0.00227002 104.077 0.00227002 115.113 0.00227002C115.354 0.00227002 115.595 -0.00176594 115.836 0.000925192C116.019 0.00361632 116.019 0.0170728 115.978 0.182577C115.881 0.571446 115.795 0.961658 115.705 1.35187C115.645 1.61695 115.581 1.88203 115.525 2.14845C115.448 2.51848 115.384 2.88986 115.3 3.25854C115.182 3.78331 115.045 4.30539 114.927 4.83016C114.818 5.32129 114.687 5.80569 114.599 6.30221C114.559 6.53499 114.497 6.76374 114.436 6.99248C114.409 7.09475 114.399 7.19701 114.38 7.29927C114.299 7.72985 114.193 8.15774 114.078 8.57756C113.995 8.88031 113.949 9.19248 113.877 9.49523C113.773 9.92582 113.683 10.3631 113.574 10.7924C113.488 11.1288 113.326 11.4557 113.115 11.7423C112.905 12.0289 112.705 12.3236 112.448 12.5739C112.135 12.878 111.768 13.0973 111.393 13.3059C110.811 13.6288 110.163 13.727 109.52 13.8414C109.323 13.8764 109.132 13.8589 108.94 13.8589C102.092 13.8616 95.2445 13.8495 88.397 13.8629C77.658 13.8831 66.919 13.867 56.1801 13.8724C52.0371 13.875 47.8941 13.8697 43.7498 13.8764C43.0501 13.8764 42.3504 13.9087 41.6507 13.902C41.6278 13.902 41.6063 13.902 41.5834 13.9047C41.2954 13.9396 41.2631 13.9208 41.3587 13.6557C41.5175 13.2157 41.5713 12.7528 41.6978 12.3088C41.8256 11.8567 41.8929 11.3884 42.0368 10.9444C42.2225 10.3725 42.3329 9.78453 42.4916 9.20728C42.6598 8.59774 42.7836 7.97744 42.933 7.36386C43.0649 6.8216 43.2088 6.28202 43.3447 5.74111C43.5035 5.10735 43.6986 4.47897 43.8063 3.83579C43.9085 3.22221 44.1898 2.69878 44.514 2.19958C44.9164 1.57793 45.4169 1.04239 46.0601 0.633341C46.5633 0.313096 47.1002 0.150283 47.6788 0.0601304C48.1403 -0.0111846 48.6019 0.000925192 49.0634 0.000925192C60.0432 0.000925192 71.023 0.000925192 82.0042 0.000925192V0.00227002Z" fill="#E7282C"/>
<path d="M106.277 5.43703C106.405 5.41415 106.485 5.41012 106.558 5.38455C107.481 5.06161 108.4 4.7333 109.325 4.41305C110.305 4.07262 111.288 3.73354 112.274 3.40926C112.627 3.29354 112.993 3.21146 113.357 3.13746C113.507 3.10785 113.671 3.12535 113.823 3.1536C113.917 3.17109 114.052 3.2303 114.077 3.30162C114.107 3.38504 114.07 3.54651 114.004 3.59899C113.782 3.77122 113.551 3.95422 113.291 4.0484C112.896 4.19238 112.47 4.25831 112.063 4.37269C111.363 4.56779 110.663 4.7629 109.972 4.97954C108.584 5.4155 107.24 5.96449 105.918 6.56461C105.311 6.84045 104.886 7.27238 104.588 7.86981C103.884 9.28534 102.943 10.5206 101.645 11.4557C100.847 12.0303 99.9702 12.4394 98.9798 12.5618C98.5937 12.6102 98.2007 12.6049 97.8361 12.4649C97.1741 12.2093 96.9655 11.6589 97.2737 11.0184C97.5199 10.5058 97.9195 10.1169 98.3488 9.75764C99.3499 8.9207 100.48 8.28828 101.635 7.69623C102.464 7.27103 103.295 6.84987 104.121 6.41795C104.267 6.34125 104.392 6.22418 104.522 6.12057C104.553 6.09635 104.568 6.0533 104.591 6.01966C104.58 6.00486 104.569 5.9914 104.56 5.9766C104.481 6.01697 104.396 6.04791 104.323 6.0977C103.564 6.60901 102.76 7.03421 101.886 7.31006C101.604 7.39886 101.296 7.41905 100.997 7.4325C100.852 7.43923 100.697 7.36388 100.554 7.30736C100.451 7.267 100.42 7.07458 100.463 6.9158C100.484 6.83642 100.483 6.75165 100.492 6.66822C100.406 6.66822 100.313 6.65207 100.233 6.67495C99.2503 6.95752 98.2599 7.21721 97.2911 7.5388C96.2107 7.89807 95.149 8.31385 94.0806 8.7081C93.6985 8.84938 93.3217 9.00681 92.9396 9.14675C92.7001 9.23421 92.4565 9.25036 92.2332 9.09427C91.9533 8.89917 91.8847 8.61256 92.0004 8.24926C92.1336 7.83348 92.4081 7.51324 92.6772 7.18492C92.8602 6.96155 93.0351 6.72877 93.2127 6.50137C93.2302 6.47984 93.2545 6.45697 93.2585 6.4314C93.2733 6.32779 93.2827 6.22149 93.2935 6.11654C93.1939 6.11654 93.0741 6.07886 92.9988 6.12057C92.614 6.33317 92.2251 6.54712 91.8645 6.79739C91.1729 7.27507 90.4611 7.71642 89.6914 8.05281C89.429 8.16718 89.1424 8.26675 88.8612 8.28963C88.3351 8.33134 88.1265 8.19813 88.0713 7.66529C87.9906 7.68009 87.9099 7.68681 87.8332 7.71103C86.7271 8.06761 85.6224 8.42687 84.5163 8.78479C83.5919 9.08486 82.6729 9.39972 81.7418 9.67691C81.2534 9.82223 80.7434 9.88681 80.2442 9.67691C79.8324 9.50333 79.753 9.30956 79.9414 8.90186C79.9899 8.79825 80.0491 8.70002 80.1258 8.55739C79.9966 8.57489 79.9105 8.57758 79.8284 8.59911C78.7694 8.87898 77.7132 9.16559 76.6529 9.44278C75.8375 9.65672 75.0207 9.86932 74.1999 10.0644C72.9014 10.3726 71.6016 10.6874 70.2749 10.8556C69.8268 10.9121 69.3787 10.8704 68.9441 10.7507C68.7463 10.6968 68.6145 10.5529 68.5566 10.347C68.4449 9.95275 68.3507 9.87336 67.9417 9.96486C67.3765 10.0927 66.8168 10.2515 66.2624 10.4183C64.9303 10.8179 63.6022 11.231 62.2715 11.6387C61.9512 11.737 61.6323 11.8419 61.3067 11.924C61.1466 11.9644 60.9743 11.9845 60.8102 11.9738C60.4846 11.9523 60.3164 11.6872 60.4792 11.4127C60.6514 11.1234 60.8828 10.8704 61.0887 10.6013C61.1533 10.5152 61.2152 10.4277 61.2879 10.3268C61.1156 10.2555 61.0107 10.3389 60.9003 10.3927C60.4307 10.6255 59.9719 10.8879 59.4888 11.0871C58.9089 11.3252 58.3074 11.5055 57.6629 11.4436C57.2633 11.4046 57.0937 11.1382 57.235 10.7655C57.3723 10.4035 57.6454 10.1479 57.9132 9.88547C58.4083 9.40106 59.0031 9.04987 59.5871 8.69195C60.2962 8.25868 61.012 7.83079 61.7507 7.44999C62.5729 7.02614 63.4542 6.74895 64.3827 6.65746C64.7325 6.62247 65.085 6.63189 65.4282 6.74492C65.7672 6.85794 65.8964 7.1311 65.6825 7.41501C65.4524 7.72045 65.1806 7.99764 64.9047 8.26406C64.2912 8.85746 63.6628 9.43605 63.0398 10.02C63.0357 10.0241 63.0304 10.0268 63.0277 10.0321C62.9886 10.1183 62.9496 10.2044 62.9093 10.2905C62.9967 10.2864 63.0909 10.2999 63.1716 10.2743C63.8471 10.0564 64.5226 9.83837 65.1913 9.60559C66.5732 9.12522 67.9592 8.65427 69.3303 8.14296C70.6234 7.66125 71.899 7.13513 73.18 6.62247C73.7922 6.37758 74.3923 6.10443 75.0072 5.86895C75.5414 5.66443 76.0931 5.51642 76.6757 5.57966C76.7901 5.59177 76.9072 5.62406 77.0121 5.66981C77.2826 5.78553 77.3418 6.08021 77.109 6.25513C76.9031 6.40987 76.665 6.54308 76.4201 6.61843C75.1754 7.00192 73.92 7.35042 72.7319 7.89134C72.234 8.11874 71.7362 8.34883 71.2504 8.60045C71.0405 8.70944 70.8548 8.86957 70.6718 9.02296C70.5844 9.09562 70.5184 9.20058 70.4633 9.30284C70.3489 9.51409 70.4148 9.64596 70.6436 9.72131C70.8831 9.79935 71.1105 9.72131 71.3338 9.66345C72.3201 9.41452 73.3024 9.15482 74.2874 8.90186C75.2669 8.65158 76.2478 8.40669 77.2274 8.15776C78.2608 7.89538 79.2942 7.62895 80.3276 7.36522C80.376 7.35311 80.4245 7.33562 80.4743 7.33158C80.8483 7.30198 81.108 7.09476 81.3435 6.82027C81.6947 6.40987 82.054 6.00486 82.4321 5.62002C82.8142 5.23116 83.2784 4.96204 83.822 4.85844C84.0871 4.80865 84.3455 4.84094 84.5756 5.00241C84.7653 5.13562 84.7949 5.27287 84.6374 5.44645C84.1557 5.98064 83.6673 6.50944 83.1815 7.0396C83.008 7.22932 82.8357 7.4177 82.6648 7.61012C82.6245 7.65587 82.5895 7.70834 82.5666 7.76351C82.4953 7.92767 82.5411 7.99898 82.7187 7.98956C82.8465 7.98284 82.9757 7.96804 83.1008 7.93843C83.6982 7.7985 84.2984 7.66528 84.8918 7.50382C85.5807 7.31544 86.2669 7.1136 86.9478 6.89427C87.6071 6.68168 88.253 6.43005 88.9123 6.21746C89.2527 6.10712 89.4761 5.90663 89.6645 5.60388C90.1314 4.8544 90.7934 4.32963 91.6613 4.09954C91.8443 4.0511 92.0488 4.05648 92.2399 4.07666C92.5426 4.10895 92.6893 4.35923 92.5682 4.63507C92.4956 4.80058 92.3718 4.94321 92.2803 5.10198C92.2426 5.16926 92.2305 5.25 92.2063 5.32535C92.2978 5.32535 92.4027 5.3536 92.4767 5.31862C92.653 5.23519 92.8131 5.12082 92.98 5.0199C93.4724 4.72253 93.9541 4.40767 94.4587 4.13452C94.9606 3.86406 95.5137 3.77929 96.0842 3.84388C96.1864 3.85599 96.2927 3.89501 96.3815 3.94749C96.6224 4.09012 96.6574 4.35385 96.4636 4.61085C96.0236 5.19483 95.5796 5.77342 95.1329 6.35201C94.9256 6.62112 94.7036 6.87947 94.5018 7.15262C94.4601 7.20914 94.4722 7.30602 94.4601 7.38272C94.522 7.38002 94.5879 7.3881 94.6471 7.3733C95.2688 7.21317 95.8877 7.04363 96.5121 6.88889C97.5374 6.63593 98.5641 6.39238 99.5907 6.14614C100.161 6.00889 100.73 5.8703 101.302 5.73978C101.733 5.64155 102.119 5.47067 102.481 5.20694C103.493 4.46957 104.545 3.79006 105.682 3.25721C106.207 3.01097 106.741 2.7755 107.324 2.68938C107.427 2.67458 107.538 2.66785 107.64 2.68535C108.009 2.74724 108.173 3.05941 107.983 3.38235C107.863 3.58553 107.691 3.75911 107.534 3.93941C107.149 4.38076 106.76 4.81941 106.374 5.26076C106.343 5.29574 106.325 5.34149 106.273 5.43299L106.277 5.43703ZM98.9758 11.5472C99.0754 11.5311 99.1803 11.5338 99.2718 11.4975C99.5665 11.3777 99.8639 11.2606 100.144 11.1126C100.923 10.6995 101.593 10.1465 102.165 9.4818C102.407 9.20058 102.613 8.88706 102.819 8.57758C102.859 8.51703 102.856 8.37036 102.811 8.32596C102.761 8.27752 102.632 8.27483 102.551 8.29905C102.403 8.34345 102.258 8.40938 102.124 8.49012C101.55 8.83458 100.974 9.17635 100.413 9.541C99.9836 9.81953 99.5611 10.1142 99.1615 10.4358C98.9623 10.5959 98.8022 10.8166 98.6596 11.0319C98.4833 11.2997 98.591 11.5768 98.9758 11.5486V11.5472ZM102.524 6.16094C103.045 6.11519 105.893 4.34981 106.051 3.98382C105.733 3.89232 102.78 5.70749 102.524 6.16094ZM62.9617 8.08241C62.8729 8.10528 62.8057 8.11336 62.7464 8.13892C61.6108 8.62333 60.5599 9.25574 59.5507 9.95813C59.474 10.012 59.4135 10.0886 59.3247 10.1748C59.805 10.2003 62.768 8.49415 62.9631 8.08241H62.9617Z" fill="white"/>
<path d="M14.9465 2.81582C15.0057 2.59245 15.0609 2.39062 15.112 2.18744C15.2493 1.64248 15.3892 1.09888 15.5171 0.552578C15.5561 0.388419 15.6274 0.334595 15.801 0.334595C18.0131 0.341323 20.2252 0.338631 22.4373 0.338631C22.4979 0.338631 22.5584 0.338631 22.6432 0.338631C22.5651 0.662913 22.4952 0.962975 22.4211 1.26304C22.3081 1.72726 22.1857 2.19013 22.0861 2.65839C22.0565 2.80102 21.9933 2.8212 21.8722 2.81851C21.564 2.81313 21.2559 2.81716 20.9478 2.81716C20.8926 2.81716 20.8388 2.81716 20.7769 2.81716V9.14805C20.793 9.15478 20.8092 9.16151 20.8253 9.16823C22.0901 7.06108 23.3563 4.95258 24.6373 2.81851H23.4034C23.4626 2.58573 23.5151 2.37582 23.5676 2.16726C23.7062 1.61692 23.8501 1.06793 23.9793 0.516247C24.0116 0.38169 24.0654 0.338631 24.204 0.338631C26.1188 0.342668 28.0349 0.339977 29.9496 0.338631C30.1541 0.338631 30.3586 0.338631 30.5941 0.338631C30.5632 0.411292 30.5511 0.458388 30.5268 0.497409C30.0559 1.22132 29.5796 1.9412 29.11 2.66646C27.9487 4.45741 26.7889 6.2497 25.629 8.04065C24.7301 9.43062 23.8327 10.8219 22.9338 12.2106C22.6728 12.6129 22.4104 13.0139 22.1399 13.4095C22.1023 13.4646 22.0081 13.5104 21.9394 13.5104C20.4055 13.5158 18.8702 13.5131 17.3363 13.5131C17.1909 13.5131 17.0456 13.5131 16.9003 13.5198C16.8021 13.5238 16.7617 13.4875 16.755 13.3852C16.6904 12.3411 16.6231 11.2956 16.5531 10.2514C16.4724 9.04578 16.3863 7.8415 16.3042 6.63588C16.2396 5.69667 16.1777 4.75882 16.1145 3.81961C16.0943 3.52493 16.0701 3.2316 16.0553 2.93692C16.0499 2.82658 15.9961 2.81313 15.9046 2.81447C15.5924 2.81851 15.2802 2.81582 14.9452 2.81582H14.9465Z" fill="#050505"/>
<path d="M41.2779 0.646789C41.2658 0.675046 41.2591 0.708684 41.2389 0.731559C40.7801 1.25902 40.5675 1.89547 40.4517 2.56557C40.3629 3.07419 40.3064 3.58954 40.2513 4.10355C40.2365 4.24349 40.2042 4.29192 40.0548 4.28923C39.3322 4.27982 38.6097 4.28385 37.8871 4.28251C37.6745 4.28251 37.6691 4.27309 37.6745 4.06722C37.6799 3.85058 37.688 3.6326 37.6826 3.41596C37.6812 3.36483 37.6314 3.27871 37.5938 3.27199C37.1443 3.19125 36.6936 3.08092 36.2401 3.06342C35.8042 3.04593 35.4045 3.2074 35.1421 3.59761C34.8394 4.04838 34.8838 4.45339 35.3157 4.7844C35.5889 4.99297 35.8862 5.18134 36.1984 5.32397C36.8564 5.62404 37.4928 5.95774 38.0741 6.38832C38.759 6.8956 39.2771 7.51186 39.4291 8.3811C39.5516 9.07945 39.3457 9.71725 39.0712 10.3362C38.6823 11.2135 38.0418 11.8742 37.2237 12.3747C36.442 12.8524 35.6252 13.2628 34.7169 13.4202C34.0522 13.536 33.3741 13.5925 32.6999 13.6275C31.1835 13.7068 29.6832 13.5481 28.199 13.2346C28.0672 13.2063 27.938 13.1713 27.8048 13.1538C27.6433 13.1336 27.6164 13.0556 27.6581 12.9116C27.7819 12.4783 27.903 12.0451 28.0133 11.6078C28.1896 10.9121 28.3538 10.2151 28.53 9.51945C28.5408 9.47908 28.6081 9.42391 28.6511 9.42391C29.5136 9.41315 30.3748 9.40911 31.2373 9.40373C31.3315 9.40373 31.3813 9.43602 31.3732 9.54367C31.3571 9.75358 31.353 9.96483 31.345 10.1761C31.3423 10.2366 31.3476 10.2985 31.3423 10.3604C31.318 10.6134 31.3167 10.6188 31.5818 10.6457C32.19 10.7076 32.7982 10.7641 33.3996 10.5986C33.701 10.5165 33.9688 10.3806 34.1935 10.1546C34.5784 9.76838 34.5407 9.38893 34.2245 8.97719C33.9029 8.55871 33.4333 8.35284 32.9731 8.13352C32.12 7.72716 31.3113 7.25621 30.695 6.52018C30.0209 5.71419 29.8716 4.81266 30.2214 3.8304C30.8336 2.11346 32.0406 1.03835 33.8033 0.575475C35.1368 0.225628 36.4971 0.123364 37.8656 0.2337C38.9124 0.317125 39.9539 0.469175 40.998 0.590276C41.0815 0.599695 41.1635 0.610459 41.247 0.621223C41.2564 0.621223 41.2631 0.634679 41.2793 0.648134L41.2779 0.646789Z" fill="#050505"/>
<path d="M10.6851 3.20071C10.2734 3.20071 9.88856 3.19802 9.50373 3.2061C9.46471 3.2061 9.4055 3.27203 9.39339 3.31643C8.84575 5.56353 8.30214 7.81197 7.75719 10.0591C7.68991 10.3349 7.62128 10.6094 7.54728 10.8839C7.51229 11.0144 7.55131 11.0467 7.68318 11.0454C8.20391 11.0373 8.72465 11.0413 9.24538 11.0413C9.28844 11.0413 9.3315 11.0467 9.39474 11.0521C9.33284 11.3077 9.27229 11.5473 9.21712 11.7881C9.09871 12.3035 8.97761 12.8175 8.87131 13.3342C8.84306 13.4701 8.79731 13.5158 8.65602 13.5158C6.15327 13.5104 3.65052 13.5118 1.14777 13.5118C1.03609 13.5118 0.923058 13.5131 0.812722 13.5239C0.679511 13.5373 0.640489 13.4889 0.672783 13.3611C0.808685 12.8215 0.941896 12.2819 1.07511 11.7424C1.11951 11.5647 1.16526 11.3858 1.20159 11.2068C1.22581 11.0844 1.27425 11.0333 1.41284 11.0373C1.88917 11.0481 2.36416 11.04 2.84049 11.04C2.93199 11.04 2.99792 11.0265 3.02349 10.9162C3.21994 10.0766 3.41908 9.23827 3.62361 8.40132C4.02997 6.72609 4.44037 5.05221 4.84942 3.37698C4.86153 3.32989 4.86691 3.2801 4.87767 3.22359C4.84673 3.21282 4.82116 3.19668 4.79694 3.19668C4.39327 3.19399 3.99095 3.18591 3.58862 3.19668C3.52135 3.19802 3.42715 3.27472 3.39755 3.34065C3.23608 3.70127 3.0948 4.06995 2.93737 4.43191C2.91449 4.48573 2.84183 4.55435 2.79205 4.55435C1.88514 4.56243 0.978227 4.56108 0.0713158 4.56108C0.0565146 4.56108 0.040367 4.55032 0 4.53686C0.0470948 4.31753 0.0901528 4.09686 0.143975 3.87753C0.414434 2.77013 0.694313 1.66542 0.955352 0.555332C0.99841 0.373681 1.06838 0.33197 1.2433 0.33197C5.53835 0.337352 9.83339 0.336007 14.1271 0.336007C14.2603 0.336007 14.3922 0.336007 14.5456 0.336007C14.5308 0.420777 14.5227 0.485363 14.5065 0.547259C14.1863 1.82016 13.862 3.09172 13.5498 4.36597C13.5081 4.53417 13.4314 4.57185 13.2753 4.5705C12.503 4.56243 11.7306 4.56108 10.9569 4.56108C10.5802 4.56108 10.5815 4.56512 10.6111 4.19374C10.6367 3.87215 10.6582 3.55056 10.6838 3.19802L10.6851 3.20071Z" fill="#050505"/>
<path d="M50.5556 6.01561C50.4762 5.9591 50.4251 5.92143 50.3712 5.88644C50.2919 5.83396 50.2057 5.79225 50.1331 5.7317C49.6581 5.33207 49.6594 4.9432 50.125 4.53146C50.452 4.24216 50.8489 4.08473 51.2512 3.95421C51.9509 3.72681 52.6547 3.49806 53.3705 3.32987C54.0325 3.17378 54.7094 3.06075 55.3848 2.98809C56.1397 2.90736 56.9013 2.87103 57.6615 2.85892C58.4944 2.84546 59.33 2.90198 60.1508 3.0473C60.7213 3.14821 61.2972 3.25855 61.7911 3.59763C61.9996 3.74026 62.1988 3.89366 62.297 4.1399C62.3764 4.34039 62.3804 4.53549 62.301 4.74002C62.1449 5.14503 61.8422 5.41818 61.4923 5.65097C60.5908 6.24974 59.6166 6.70858 58.6088 7.10014C57.1475 7.66797 55.6512 8.12546 54.12 8.45513C53.17 8.65965 52.2039 8.78613 51.2432 8.93415C50.8624 8.99335 50.4762 9.01622 50.0927 9.05525C50.0483 9.05928 49.9999 9.05525 49.9609 9.07274C49.903 9.09831 49.8344 9.12925 49.8075 9.17769C49.794 9.20191 49.8505 9.28668 49.8936 9.31898C50.3403 9.65268 50.7776 10.0039 51.2445 10.3093C52.3775 11.0521 53.6221 11.5324 54.9502 11.8083C55.1319 11.8459 55.3054 11.959 55.4629 12.0666C55.5988 12.1581 55.5907 12.2994 55.5005 12.4353C55.3754 12.6223 55.1924 12.7273 54.9825 12.7784C54.455 12.9076 53.9262 12.8713 53.4015 12.7663C51.7357 12.434 50.2569 11.702 48.914 10.678C48.7808 10.5771 48.6435 10.4802 48.4996 10.3954C48.0744 10.1438 47.6936 10.164 47.3343 10.5058C47.0948 10.7345 46.8916 11.0063 46.6979 11.2768C46.3682 11.7329 46.0062 12.1406 45.4424 12.3075C45.0899 12.4124 44.7293 12.3008 44.5059 12.0276C44.3539 11.8419 44.3539 11.6455 44.5207 11.4732C44.8585 11.1247 45.2043 10.7843 45.5447 10.4371C45.7156 10.2622 45.8851 10.0833 46.0453 9.89757C46.1637 9.76167 46.1569 9.67286 46.0157 9.55714C45.9174 9.47641 45.8031 9.41317 45.6927 9.34858C45.3859 9.16962 45.3227 8.7821 45.5608 8.52375C45.7519 8.31653 45.9874 8.20216 46.27 8.19139C46.5942 8.18063 46.9185 8.18332 47.2428 8.16987C47.668 8.15237 48.0044 7.9169 48.33 7.68546C48.8252 7.33292 49.3002 6.95213 49.7859 6.58613C50.0295 6.40179 50.2784 6.22418 50.5569 6.01831L50.5556 6.01561ZM57.4005 3.94344C56.4451 4.01207 55.5423 4.07531 54.6394 4.14393C54.4227 4.16008 54.2061 4.19103 53.9908 4.22198C53.8791 4.23812 53.8172 4.29867 53.8119 4.42381C53.7971 4.84766 53.5602 5.15042 53.2373 5.39396C53.0462 5.53794 52.8431 5.66711 52.6493 5.8084C52.0451 6.24974 51.4437 6.69243 50.8422 7.13647C50.6363 7.28852 50.4291 7.44191 50.2327 7.60607C50.1882 7.64375 50.1519 7.74601 50.1734 7.79042C50.195 7.83751 50.2905 7.87788 50.3524 7.87519C50.5865 7.86442 50.8207 7.84155 51.0534 7.81194C52.3667 7.64106 53.6733 7.43653 54.961 7.12301C56.3644 6.78124 57.7355 6.34393 59.0461 5.73708C59.4081 5.56889 59.7619 5.3684 60.0862 5.13427C60.424 4.88938 60.3997 4.6095 60.0203 4.42785C59.7027 4.2758 59.3542 4.15873 59.0071 4.10222C58.4635 4.01341 57.9078 3.98919 57.4045 3.9421L57.4005 3.94344ZM52.4851 4.48167C52.4717 4.45745 52.4582 4.43323 52.4461 4.40901C52.1999 4.40632 52.0088 4.55568 51.8043 4.66601C51.7908 4.67409 51.7827 4.72925 51.7922 4.73733C51.8204 4.75886 51.8621 4.78442 51.8917 4.77769C51.9779 4.75617 52.064 4.72656 52.142 4.6862C52.2604 4.62565 52.3708 4.55164 52.4851 4.48436V4.48167Z" fill="white"/>
<path d="M1.15986 18.602C15.7566 18.5738 30.3532 18.5697 44.9499 18.6034C44.9499 18.6195 44.9499 18.637 44.9499 18.6531C44.3148 18.6531 43.6784 18.6531 43.0433 18.6531C38.0283 18.6653 33.0134 18.676 27.9985 18.6895C24.9696 18.6976 21.9421 18.7231 18.9132 18.7218C15.5386 18.7218 12.1625 18.6976 8.78787 18.6868C7.4894 18.6828 6.19227 18.6868 4.8938 18.6828C3.66261 18.6787 2.43142 18.668 1.20157 18.6599C1.18677 18.6599 1.17197 18.6505 1.15717 18.6451C1.15717 18.6303 1.15986 18.6155 1.1612 18.6007L1.15986 18.602Z" fill="#050505" stroke="black" stroke-width="0.2"/>
<path d="M111.593 18.6586C110.62 18.6586 109.647 18.6572 108.673 18.6586C104.369 18.668 100.064 18.6774 95.7598 18.6895C92.9328 18.6976 90.1058 18.7258 87.2787 18.7232C82.8061 18.7191 78.3347 18.6976 73.8621 18.6814C72.8045 18.6774 71.7469 18.6639 70.6892 18.6545C70.6529 18.6545 70.6179 18.6478 70.5829 18.6222C84.2525 18.5738 97.9221 18.5684 111.59 18.6034C111.59 18.6209 111.59 18.6397 111.592 18.6572L111.593 18.6586Z" fill="#050505" stroke="black" stroke-width="0.2"/>
<path d="M64.4674 17.9023C64.8509 18.1014 65.0298 18.3934 65.0056 18.7958C64.9814 19.186 64.7378 19.4887 64.3409 19.6098C63.8148 19.7699 63.3196 19.7255 62.9079 19.3246C62.5365 18.9626 62.5997 18.1956 63.1353 17.944C63.1501 17.9373 63.1608 17.9238 63.1851 17.9036C63.1528 17.866 63.1245 17.8283 63.0909 17.796C62.7975 17.5175 62.7155 17.1797 62.8366 16.803C62.9469 16.4625 63.2174 16.293 63.5578 16.2271C64.0018 16.141 64.3961 16.2069 64.7136 16.5729C64.9222 16.811 64.9908 17.4327 64.6746 17.6884C64.6019 17.7476 64.5441 17.8229 64.4687 17.9023H64.4674ZM63.87 18.0624C63.7394 18.0893 63.6035 18.1014 63.4797 18.1472C63.2402 18.2346 63.107 18.4459 63.1111 18.6921C63.1151 18.9303 63.2537 19.1093 63.4986 19.2035C63.7475 19.2976 63.9897 19.2842 64.2333 19.1846C64.4028 19.116 64.5037 18.9922 64.5454 18.8186C64.6463 18.4069 64.349 18.0799 63.8686 18.0611L63.87 18.0624ZM63.8309 16.6173C63.4448 16.6227 63.2214 16.8218 63.2295 17.1569C63.2375 17.4771 63.4959 17.6884 63.8753 17.683C64.2131 17.6789 64.4647 17.4367 64.458 17.1246C64.4512 16.8191 64.1969 16.6132 63.8309 16.6173Z" fill="#050505"/>
<path d="M52.5631 19.704C51.9079 19.6677 51.4786 19.4645 51.188 19.0057C51.1261 18.9074 51.1274 18.8456 51.2324 18.7931C51.2566 18.781 51.2795 18.7635 51.3037 18.7487C51.5109 18.6235 51.5217 18.6195 51.6226 18.8375C51.8231 19.2734 52.6264 19.3878 52.9803 19.0918C53.2534 18.863 53.2252 18.493 52.909 18.3316C52.6923 18.2212 52.4542 18.1512 52.2241 18.0638C52.0935 18.014 51.9603 17.9723 51.8325 17.9158C51.4396 17.7422 51.2283 17.4152 51.2701 17.0573C51.3225 16.6173 51.6414 16.2836 52.0747 16.215C52.6506 16.1221 53.1041 16.3226 53.4485 16.7855C53.5077 16.8649 53.5118 16.912 53.4149 16.9685C53.1525 17.1219 53.1552 17.1259 52.9655 16.8958C52.7152 16.5917 52.2913 16.5191 51.9536 16.7223C51.6535 16.9026 51.6441 17.321 51.9509 17.4906C52.1339 17.5915 52.3425 17.648 52.5389 17.7287C52.7609 17.8202 52.9883 17.9023 53.1983 18.014C53.797 18.3342 53.684 19.229 53.1861 19.482C52.9574 19.5977 52.7004 19.6596 52.5645 19.7067L52.5631 19.704Z" fill="#050505"/>
<path d="M50.7466 16.2715C50.7466 16.2715 50.752 16.2823 50.752 16.2877C50.7386 16.537 50.6062 16.6617 50.3551 16.6617C50.0133 16.6617 49.6729 16.6644 49.3311 16.6617C49.2221 16.6617 49.1831 16.6994 49.1858 16.8084C49.1925 17.0533 49.1925 17.2982 49.1844 17.5431C49.1804 17.6776 49.2315 17.7153 49.362 17.7126C49.7307 17.7045 50.1008 17.7153 50.4694 17.7045C50.6659 17.6992 50.6228 17.8283 50.6323 17.9373C50.643 18.0611 50.6121 18.1418 50.4627 18.1391C50.094 18.1324 49.724 18.1392 49.3553 18.1297C49.2342 18.127 49.1831 18.1566 49.1871 18.2872C49.1952 18.5374 49.1912 18.7877 49.1844 19.038C49.1817 19.1577 49.2167 19.2035 49.3486 19.1995C49.7684 19.1887 50.1882 19.1954 50.608 19.1887C50.7305 19.1873 50.787 19.2264 50.7709 19.3529C50.7641 19.4026 50.783 19.4592 50.7628 19.5009C50.7399 19.548 50.6888 19.6152 50.6484 19.6166C50.0496 19.6247 49.4509 19.6233 48.8521 19.626C48.7458 19.626 48.7269 19.5762 48.7283 19.4793C48.7283 18.4446 48.7269 17.4099 48.7216 16.3751C48.7216 16.2957 48.731 16.2432 48.8238 16.2446C49.4562 16.2486 50.0873 16.2513 50.7197 16.2554C50.7291 16.2554 50.7386 16.2675 50.7466 16.2728V16.2715Z" fill="#050505"/>
<path d="M60.5397 19.6246C60.8223 19.2156 61.0766 18.8496 61.3443 18.4621C61.1735 18.4446 61.0403 18.4432 60.9124 18.4163C60.4469 18.3221 60.0809 17.9454 60.0311 17.5215C59.9665 16.9725 60.1777 16.5123 60.6137 16.3118C61.1896 16.0468 62.1355 16.1437 62.3347 17.0748C62.4154 17.4502 62.3051 17.7866 62.0898 18.0988C61.7695 18.5616 61.4628 19.0326 61.1398 19.4941C61.0941 19.5587 60.9945 19.6031 60.9124 19.6192C60.8075 19.6408 60.6944 19.6246 60.5397 19.6246ZM61.1856 18.018C61.5287 18.0665 61.9391 17.7449 61.9216 17.2914C61.9068 16.8877 61.6121 16.6173 61.1519 16.6159C60.7631 16.6146 60.4482 16.9308 60.4536 17.3183C60.4576 17.7032 60.7819 18.0665 61.1856 18.018Z" fill="#050505"/>
<path d="M86.7876 2.06237C87.2612 2.04219 87.5102 2.33955 87.3608 2.78897C87.1482 3.43215 86.6853 3.80891 86.0152 3.91925C85.8524 3.94616 85.6802 3.94212 85.516 3.92328C85.22 3.89099 85.0585 3.63668 85.1124 3.34335C85.1608 3.07961 85.2967 2.86836 85.4757 2.67864C85.8322 2.30322 86.2628 2.08255 86.7889 2.06237H86.7876Z" fill="white"/>
<path d="M65.9609 19.182C66.0134 19.1914 66.0592 19.2062 66.1036 19.2062C66.4951 19.2035 66.8867 19.1995 67.2783 19.1927C67.4209 19.1901 67.4761 19.2452 67.468 19.3919C67.4599 19.5291 67.472 19.6327 67.2715 19.6287C66.6445 19.6193 66.0175 19.6314 65.3918 19.6301C65.3433 19.6301 65.2572 19.5951 65.2559 19.5722C65.2491 19.4646 65.2532 19.3542 65.2788 19.2493C65.2909 19.1968 65.3541 19.1551 65.3958 19.1107C65.7941 18.7043 66.1978 18.3033 66.5893 17.8902C66.7064 17.7665 66.8006 17.6171 66.88 17.4664C67.0011 17.2336 66.9594 16.9927 66.7952 16.8165C66.6162 16.6254 66.3377 16.542 66.1076 16.6483C65.9717 16.7102 65.8425 16.8111 65.7416 16.9214C65.6461 17.0264 65.5882 17.0681 65.4564 16.9699C65.2303 16.8017 65.2249 16.8111 65.4106 16.5931C65.817 16.1127 66.7104 16.0239 67.1383 16.5366C67.4128 16.8636 67.4909 17.3883 67.2298 17.7476C66.9755 18.0975 66.6647 18.4056 66.3767 18.7299C66.2476 18.8752 66.1143 19.0151 65.9623 19.1806L65.9609 19.182Z" fill="#050505"/>
<path d="M53.7028 16.2311C53.9746 16.2311 54.2249 16.2311 54.4765 16.2311C54.9919 16.2338 55.5059 16.2419 56.0213 16.2419C56.1383 16.2419 56.1935 16.2769 56.172 16.394C56.1518 16.4976 56.2419 16.6604 56.0253 16.6604C55.7844 16.6604 55.5436 16.6725 55.3041 16.6671C55.1735 16.6644 55.1507 16.7102 55.152 16.834C55.1628 17.7247 55.1668 18.6155 55.1641 19.5062C55.1641 19.5466 55.0942 19.6166 55.0498 19.622C54.7187 19.6637 54.7161 19.657 54.7161 19.3394C54.7174 18.4984 54.7161 17.6574 54.7214 16.8178C54.7214 16.6994 54.6918 16.6658 54.568 16.6711C54.3164 16.6819 54.0648 16.6738 53.8132 16.6631C53.7755 16.6617 53.7136 16.6079 53.7082 16.5716C53.6934 16.4693 53.7028 16.3644 53.7028 16.2325V16.2311Z" fill="#050505"/>
<path d="M59.0233 16.7317C58.8376 16.7869 58.6546 16.8299 58.4796 16.8972C58.3289 16.9551 58.2899 16.8757 58.2576 16.7626C58.228 16.6563 58.1702 16.5527 58.3451 16.503C58.5698 16.4397 58.7851 16.3401 59.0111 16.2809C59.1578 16.2419 59.3166 16.2459 59.4955 16.2285C59.4955 16.4881 59.4955 16.7196 59.4955 16.9497C59.4955 17.7893 59.4929 18.6303 59.4996 19.4699C59.4996 19.5991 59.4606 19.6435 59.3395 19.6273C59.3287 19.626 59.3166 19.6273 59.3058 19.6273C59.0206 19.6287 59.0259 19.626 59.0286 19.3381C59.0394 18.4984 59.0421 17.6574 59.0475 16.8178C59.0475 16.7976 59.0354 16.7774 59.0219 16.7317H59.0233Z" fill="#050505"/>
<path d="M56.3617 19.6691C56.1733 19.6691 56.0374 19.5493 56.0361 19.3838C56.0347 19.2156 56.1881 19.0501 56.3469 19.0501C56.5272 19.0501 56.6793 19.19 56.6779 19.3569C56.6779 19.548 56.5528 19.6691 56.3617 19.6691Z" fill="#050505"/>
</svg>
